<svg xmlns="http://www.w3.org/2000/svg" width="29.393" height="24.276" viewBox="0 0 29.393 24.276">
  <g id="Group_364" data-name="Group 364" transform="translate(1 1)">
    <path id="Path_836" data-name="Path 836" d="M2,22.8V10.425A2.617,2.617,0,0,1,4.739,7.95h.685a2.847,2.847,0,0,0,2.191-.99L10.656,3.3a.854.854,0,0,1,.657-.3h8.766a.854.854,0,0,1,.657.3L23.777,6.96a2.847,2.847,0,0,0,2.191.99h.685a2.617,2.617,0,0,1,2.739,2.475V22.8a2.617,2.617,0,0,1-2.739,2.475H4.739A2.617,2.617,0,0,1,2,22.8Z" transform="translate(-2 -3)" fill="none" stroke="#5885f4" stroke-linecap="round" stroke-linejoin="round" stroke-width="2"/>
    <path id="Path_837" data-name="Path 837" d="M14.17,21.341A6.17,6.17,0,1,0,8,15.17,6.17,6.17,0,0,0,14.17,21.341Z" transform="translate(-0.474 -3.039)" fill="none" stroke="#5885f4" stroke-linecap="round" stroke-linejoin="round" stroke-width="2"/>
  </g>
</svg>
