<svg xmlns="http://www.w3.org/2000/svg" width="20.35" height="20.35" viewBox="0 0 20.35 20.35">
  <g id="settings" transform="translate(1 1)">
    <circle id="Oval" cx="2.502" cy="2.502" r="2.502" transform="translate(6.673 6.673)" fill="none" stroke="#2d2d2d" stroke-linecap="round" stroke-linejoin="round" stroke-miterlimit="10" stroke-width="2"/>
    <path id="Path" d="M15.347,11.677a1.376,1.376,0,0,0,.275,1.518l.05.05a1.669,1.669,0,1,1-2.36,2.36l-.05-.05a1.387,1.387,0,0,0-2.352.984v.142a1.668,1.668,0,0,1-3.336,0v-.075a1.376,1.376,0,0,0-.9-1.259,1.376,1.376,0,0,0-1.518.275l-.05.05a1.669,1.669,0,1,1-2.36-2.36l.05-.05A1.387,1.387,0,0,0,1.81,10.91H1.668a1.668,1.668,0,0,1,0-3.336h.075A1.376,1.376,0,0,0,3,6.673a1.376,1.376,0,0,0-.275-1.518l-.05-.05a1.669,1.669,0,1,1,2.36-2.36l.05.05a1.376,1.376,0,0,0,1.518.275h.067A1.376,1.376,0,0,0,7.507,1.81V1.668a1.668,1.668,0,1,1,3.336,0v.075a1.387,1.387,0,0,0,2.352.984l.05-.05a1.669,1.669,0,1,1,2.36,2.36l-.05.05a1.376,1.376,0,0,0-.275,1.518v.067a1.376,1.376,0,0,0,1.259.834h.142a1.668,1.668,0,0,1,0,3.336h-.075A1.376,1.376,0,0,0,15.347,11.677Z" fill="none" stroke="#2d2d2d" stroke-linecap="round" stroke-linejoin="round" stroke-miterlimit="10" stroke-width="2"/>
  </g>
</svg>
